HIERARCHY
ROOT Hips
{
	OFFSET 0.000000 0.000000 0.000000
	CHANNELS 6 Xposition Yposition Zposition Zrotation Yrotation Xrotation 
	JOINT LHipJoint
	{
		OFFSET 0.000000 0.000000 0.000000
		CHANNELS 3 Zrotation Yrotation Xrotation
		JOINT LeftUpLeg
		{
			OFFSET 1.363060 -1.794630 0.839290
			CHANNELS 3 Zrotation Yrotation Xrotation
			JOINT LeftLeg
			{
				OFFSET 2.448110 -6.726130 0.000000
				CHANNELS 3 Zrotation Yrotation Xrotation
				JOINT LeftFoot
				{
					OFFSET 2.562200 -7.039590 0.000000
					CHANNELS 3 Zrotation Yrotation Xrotation
					JOINT LeftToeBase
					{
						OFFSET 0.157640 -0.433110 2.322550
						CHANNELS 3 Zrotation Yrotation Xrotation
						End Site
						{
							OFFSET 0.000000 0.000000 0.000000
						}
					}
				}
			}
		}
	}
	JOINT RHipJoint
	{
		OFFSET 0.000000 0.000000 0.000000
		CHANNELS 3 Zrotation Yrotation Xrotation
		JOINT RightUpLeg
		{
			OFFSET -1.305520 -1.794630 0.839290
			CHANNELS 3 Zrotation Yrotation Xrotation
			JOINT RightLeg
			{
				OFFSET -2.542530 -6.985550 0.000000
				CHANNELS 3 Zrotation Yrotation Xrotation
				JOINT RightFoot
				{
					OFFSET -2.568260 -7.056230 0.000000
					CHANNELS 3 Zrotation Yrotation Xrotation
					JOINT RightToeBase
					{
						OFFSET -0.164730 -0.452590 2.363150
						CHANNELS 3 Zrotation Yrotation Xrotation
						End Site
						{
							OFFSET 0.000000 0.000000 0.000000
						}
					}
				}
			}
		}
	}
	JOINT LowerBack
	{
		OFFSET 0.000000 0.000000 0.000000
		CHANNELS 3 Zrotation Yrotation Xrotation
		JOINT Spine
		{
			OFFSET 0.028270 2.035590 -0.193380
			CHANNELS 3 Zrotation Yrotation Xrotation
			JOINT Spine1
			{
				OFFSET 0.056720 2.048850 -0.042750
				CHANNELS 3 Zrotation Yrotation Xrotation
				JOINT Neck
				{
					OFFSET 0.000000 0.000000 0.000000
					CHANNELS 3 Zrotation Yrotation Xrotation
					JOINT Neck1
					{
						OFFSET -0.054170 1.746240 0.172020
						CHANNELS 3 Zrotation Yrotation Xrotation
						JOINT Head
						{
							OFFSET 0.104070 1.761360 -0.123970
							CHANNELS 3 Zrotation Yrotation Xrotation
							End Site
							{
								OFFSET 0.000000 0.000000 0.000000
							}
						}
					}
				}
				JOINT LeftShoulder
				{
					OFFSET 0.000000 0.000000 0.000000
					CHANNELS 3 Zrotation Yrotation Xrotation
					JOINT LeftArm
					{
						OFFSET 3.362410 1.200890 -0.311210
						CHANNELS 3 Zrotation Yrotation Xrotation
						JOINT LeftForeArm
						{
							OFFSET 4.983000 -0.000000 -0.000000
							CHANNELS 3 Zrotation Yrotation Xrotation
							JOINT LeftHand
							{
								OFFSET 3.483560 -0.000000 -0.000000
								CHANNELS 3 Zrotation Yrotation Xrotation
								JOINT LeftFingerBase
								{
									OFFSET 0.000000 0.000000 0.000000
									CHANNELS 3 Zrotation Yrotation Xrotation
									JOINT LeftHandIndex1
									{
										OFFSET 0.715260 -0.000000 -0.000000
										CHANNELS 3 Zrotation Yrotation Xrotation
										End Site
										{
											OFFSET 0.000000 0.000000 0.000000
										}
									}
								}
								JOINT LThumb
								{
									OFFSET 0.000000 0.000000 0.000000
									CHANNELS 3 Zrotation Yrotation Xrotation
									End Site
									{
										OFFSET 0.000000 0.000000 0.000000
									}
								}
							}
						}
					}
				}
				JOINT RightShoulder
				{
					OFFSET 0.000000 0.000000 0.000000
					CHANNELS 3 Zrotation Yrotation Xrotation
					JOINT RightArm
					{
						OFFSET -3.136600 1.374050 -0.404650
						CHANNELS 3 Zrotation Yrotation Xrotation
						JOINT RightForeArm
						{
							OFFSET -5.241900 -0.000000 -0.000000
							CHANNELS 3 Zrotation Yrotation Xrotation
							JOINT RightHand
							{
								OFFSET -3.444170 -0.000000 -0.000000
								CHANNELS 3 Zrotation Yrotation Xrotation
								JOINT RightFingerBase
								{
									OFFSET 0.000000 0.000000 0.000000
									CHANNELS 3 Zrotation Yrotation Xrotation
									JOINT RightHandIndex1
									{
										OFFSET -0.622530 -0.000000 -0.000000
										CHANNELS 3 Zrotation Yrotation Xrotation
										End Site
										{
											OFFSET 0.000000 0.000000 0.000000
										}
									}
								}
								JOINT RThumb
								{
									OFFSET 0.000000 0.000000 0.000000
									CHANNELS 3 Zrotation Yrotation Xrotation
									End Site
									{
										OFFSET 0.000000 0.000000 0.000000
									}
								}
							}
						}
					}
				}
			}
		}
	}
}
MOTION
Frames: 10
Frame Time: 0.008333
52.973304 18.331770 -0.884731 158.998414 -88.760081 -140.226855 -5.405278 -1.246233 -2.120951 -7.478704 -19.736125 -18.469576 -0.348638 8.189379 22.492784 -2.432158 9.706427 -0.508292 0.092100 -1.957400 -5.387800 4.622421 1.035149 -1.902121 10.285582 19.919006 -15.848082 -0.249143 -7.240583 19.731902 4.422385 -21.616828 -1.218563 -1.346900 7.347400 -20.748600 -4.074786 0.528634 -7.783160 2.356306 0.835849 -15.660006 0.031858 0.498524 -3.023189 -12.132514 -2.727626 0.415372 16.821118 -7.264009 10.561026 4.151700 -3.470100 0.268900 -7.390666 -8.197962 1.924402 -91.095071 1.741880 4.776399 10.542980 -10.598528 -1.113924 -0.550556 0.568101 53.406711 -9.741007 22.030794 -3.406500 -7.125000 0.000000 0.000000 -36.134000 48.558100 -3.611700 6.377844 6.207886 1.709868 90.834472 -6.126109 8.584176 -9.845838 12.879284 -1.093760 -0.757648 -0.014358 34.147938 -13.405590 11.120773 -2.613000 7.125000 0.000000 0.000000 10.046000 -18.197300 6.507200 
52.979813 18.332432 -0.887048 168.207543 -88.780360 -149.489305 -5.351320 -1.230199 -2.113086 -7.349363 -19.672790 -18.516985 -0.331348 8.226698 22.583275 -2.464236 9.791617 -0.547982 0.124300 -2.272700 -6.260000 4.671512 1.041160 -1.897950 10.452450 20.075193 -15.751226 -0.246190 -7.227229 19.715336 4.426577 -21.631152 -1.323146 -1.274300 7.154300 -20.173400 -3.993353 0.531381 -7.864407 2.519426 0.862465 -15.492987 0.089055 0.515627 -2.859683 -12.143560 -2.890724 0.279705 16.678584 -7.421105 10.464952 4.118400 -3.551600 0.283500 -7.401073 -8.178124 1.924133 -91.133495 1.554801 5.876316 10.685143 -10.781278 -1.174486 -0.592676 0.558560 51.924982 -10.607938 22.928256 -3.880600 -7.125000 0.000000 0.000000 -37.440400 49.192400 -4.440300 6.372721 6.214517 1.705123 90.726034 -5.933261 8.499153 -9.749264 12.765672 -1.077080 -0.756673 -0.001723 35.333698 -13.500632 11.054483 -2.619300 7.125000 0.000000 0.000000 9.979600 -18.256200 6.449600 
52.988419 18.332763 -0.888041 173.105676 -88.751434 -154.392633 -5.308859 -1.241200 -2.116372 -7.310988 -19.511355 -18.655157 -0.315561 8.261441 22.669783 -2.467908 9.806199 -0.516457 0.129100 -2.316200 -6.380400 4.691255 1.057624 -1.892634 10.536619 19.979780 -15.835264 -0.245990 -7.224664 19.719573 4.383457 -21.461984 -1.294706 -1.283200 7.178500 -20.245200 -3.973786 0.519125 -7.929641 2.624649 0.866590 -15.389943 0.160257 0.519501 -2.728926 -12.017755 -3.037403 0.337781 16.452490 -7.538142 10.083499 4.057000 -3.632000 0.203400 -7.413796 -8.168077 1.910396 -91.146188 1.435171 6.354870 10.724265 -10.819423 -1.174078 -0.587055 0.550433 51.713601 -10.430710 22.742169 -3.783400 -7.125000 0.000000 0.000000 -37.174300 49.061600 -4.265300 6.365380 6.222562 1.702878 90.582171 -5.824437 9.247507 -9.768076 12.785732 -1.072974 -0.743913 -0.010000 35.497728 -13.355107 10.719706 -2.517700 7.125000 0.000000 0.000000 10.079100 -18.602000 6.437600 
52.997135 18.332322 -0.889254 172.803513 -88.697205 -154.120446 -5.294371 -1.256616 -2.119322 -7.383983 -19.316229 -18.796037 -0.296027 8.306296 22.785468 -2.448576 9.764121 -0.392964 0.131700 -2.339300 -6.444300 4.687444 1.065770 -1.888104 10.524814 19.911983 -15.858665 -0.239548 -7.206254 19.673666 4.353118 -21.340014 -1.229932 -1.285900 7.185600 -20.266400 -3.998166 0.500909 -7.874764 2.641401 0.849348 -15.339707 0.181038 0.515101 -2.717975 -12.044955 -3.062522 0.314861 16.485616 -7.564916 9.958021 4.071700 -3.652700 0.186600 -7.413976 -8.167357 1.912011 -91.120736 1.325876 6.862098 10.799196 -10.918468 -1.197863 -0.603200 0.538594 50.854847 -10.733885 22.970410 -3.941800 -7.125000 0.000000 0.000000 -37.584200 49.211500 -4.482400 6.368509 6.213812 1.700207 90.498154 -5.795002 10.299258 -9.838809 12.874670 -1.079207 -0.731378 -0.013095 35.306315 -13.082204 10.569847 -2.429900 7.125000 0.000000 0.000000 10.267400 -18.776200 6.521500 
53.000776 18.336735 -0.889806 168.880966 -88.668128 -150.264100 -5.314446 -1.262976 -2.129358 -7.494612 -19.350769 -18.834415 -0.272294 8.350518 22.913961 -2.441265 9.750500 -0.286377 0.072600 -1.738700 -4.784000 4.669956 1.064469 -1.872505 10.467352 19.844430 -15.796499 -0.215178 -7.175493 19.609112 4.357971 -21.241326 -1.900407 -1.077600 6.598300 -18.530700 -4.066045 0.468248 -7.796902 2.611580 0.813543 -15.291003 0.180891 0.500769 -2.741748 -12.165751 -3.053708 0.149680 16.622639 -7.578266 10.156959 4.112400 -3.646000 0.258200 -7.406254 -8.166482 1.919999 -91.088487 1.191364 6.814362 10.800238 -10.930628 -1.205270 -0.613253 0.534865 50.923686 -11.134015 23.058161 -4.119200 -7.125000 0.000000 0.000000 -37.987000 49.234100 -4.569000 6.376558 6.203583 1.699639 90.467236 -5.703070 10.465806 -9.783330 12.827914 -1.074453 -0.734898 0.020866 35.746523 -12.867019 11.120191 -2.495600 7.125000 0.000000 0.000000 10.414700 -18.256500 6.740200 
53.002210 18.347216 -0.889806 162.505381 -88.674859 -143.957881 -5.356391 -1.270257 -2.152474 -7.591740 -19.609258 -18.801010 -0.247680 8.387280 23.041053 -2.426562 9.708914 -0.279199 0.002800 0.339500 0.932900 4.643364 1.058660 -1.847711 10.378416 19.733588 -15.729591 -0.174181 -7.137593 19.540499 4.357960 -21.047696 -3.293842 -0.710200 5.386100 -15.013100 -4.158844 0.402073 -7.715879 2.577209 0.735880 -15.322459 0.198060 0.461409 -2.793136 -12.224084 -3.045451 0.238872 16.601035 -7.585318 10.213071 4.122200 -3.648800 0.255500 -7.404922 -8.171114 1.925594 -91.089066 1.196192 6.633839 10.855477 -11.014789 -1.225390 -0.628986 0.525914 51.488200 -11.994163 23.038292 -4.471000 -7.125000 0.000000 0.000000 -38.717600 49.112400 -4.553500 6.377804 6.201944 1.702150 90.412871 -5.739972 11.017611 -9.755438 12.794566 -1.069694 -0.734347 0.030648 35.743076 -12.728439 11.275513 -2.496300 7.125000 0.000000 0.000000 10.510500 -18.117300 6.837100 
53.005520 18.351739 -0.892013 162.492401 -88.601647 -144.004443 -5.356073 -1.264466 -2.163106 -7.623956 -19.717435 -18.772312 -0.225967 8.426218 23.159845 -2.447561 9.761753 -0.354598 0.002700 0.337400 0.927100 4.649943 1.060854 -1.834253 10.360844 19.707876 -15.653221 -0.145995 -7.098813 19.457866 4.289995 -20.702641 -3.925320 -0.535200 4.687700 -13.019900 -4.192521 0.389827 -7.645989 2.588345 0.720560 -15.405786 0.232126 0.455062 -2.858180 -12.234834 -3.018587 0.602312 16.458301 -7.565583 10.038576 4.114500 -3.656000 0.158900 -7.414485 -8.185014 1.914141 -91.118669 1.323243 6.482940 10.760141 -10.872680 -1.184234 -0.602501 0.534134 51.025788 -10.736660 22.720204 -3.905000 -7.125000 0.000000 0.000000 -37.429800 49.009100 -4.248900 6.369585 6.210419 1.709809 90.307901 -5.857330 12.064324 -9.782893 12.808404 -1.067877 -0.726852 0.014097 35.151727 -12.596624 10.997301 -2.413300 7.125000 0.000000 0.000000 10.602800 -18.402000 6.831500 
53.009933 18.351739 -0.892013 165.511617 -88.607832 -147.077825 -5.332071 -1.258481 -2.162275 -7.593392 -19.695951 -18.766920 -0.210666 8.456178 23.247382 -2.445972 9.754782 -0.408880 0.003400 0.374300 1.028500 4.666433 1.067498 -1.823133 10.438994 19.587374 -15.633390 -0.134482 -7.076401 19.397955 4.227797 -20.455270 -3.900857 -0.531300 4.671000 -12.972500 -4.099142 0.400415 -7.652468 2.608571 0.725590 -15.378349 0.196254 0.452967 -2.829085 -12.246742 -3.049570 0.673469 16.362813 -7.603517 10.076063 4.098000 -3.674100 0.155600 -7.418889 -8.183225 1.912301 -91.106089 1.312907 6.444698 10.753666 -10.861789 -1.177786 -0.594727 0.537437 50.957668 -10.425328 22.659705 -3.770400 -7.125000 0.000000 0.000000 -37.121800 48.996900 -4.191000 6.367841 6.215137 1.717721 90.196621 -5.797196 13.116897 -9.850635 12.868740 -1.066434 -0.706601 -0.014665 34.392322 -12.342526 10.400746 -2.244900 7.125000 0.000000 0.000000 10.782000 -19.010800 6.802700 
53.013464 18.351188 -0.891571 168.294204 -88.681398 -149.944264 -5.313420 -1.249417 -2.154348 -7.546672 -19.694842 -18.719698 -0.201834 8.470069 23.295311 -2.433364 9.717869 -0.433617 0.001500 0.254200 0.698500 4.682881 1.065729 -1.807603 10.545778 19.474643 -15.589953 -0.129811 -7.074194 19.388613 4.215376 -20.408203 -3.968336 -0.534800 4.685800 -13.014700 -3.969197 0.403566 -7.682212 2.611622 0.719221 -15.240226 0.123556 0.442784 -2.727532 -12.265914 -3.106846 0.530547 16.372979 -7.665697 10.152842 4.094300 -3.698400 0.199600 -7.417300 -8.179140 1.914251 -91.045328 1.162935 6.444200 10.755971 -10.868683 -1.175848 -0.589064 0.540338 50.995014 -10.271261 22.647246 -3.706700 -7.125000 0.000000 0.000000 -36.980100 49.004100 -4.177700 6.374003 6.208436 1.718026 90.108810 -5.579166 13.971093 -9.947900 12.974116 -1.065287 -0.671873 -0.037492 33.764213 -11.777821 9.713779 -2.005300 7.125000 0.000000 0.000000 11.181900 -19.734800 6.880500 
53.016884 18.350305 -0.889585 167.137394 -88.722358 -148.871516 -5.322168 -1.244486 -2.146078 -7.587886 -19.688510 -18.667929 -0.197377 8.477975 23.325544 -2.429271 9.704957 -0.453517 0.000100 0.057100 0.156800 4.676741 1.057686 -1.794712 10.560310 19.379196 -15.538318 -0.128025 -7.080667 19.397703 4.250171 -20.540889 -4.097897 -0.557100 4.781100 -13.285200 -3.909249 0.401066 -7.661015 2.570960 0.707538 -15.142162 0.066344 0.432015 -2.673917 -12.231622 -3.156422 0.495720 16.308200 -7.703998 10.068929 4.073800 -3.721200 0.189700 -7.417271 -8.176562 1.913318 -90.984514 1.057551 6.430696 10.764301 -10.884125 -1.177864 -0.590587 0.538481 51.114385 -10.407701 22.615662 -3.757000 -7.125000 0.000000 0.000000 -37.079000 48.961300 -4.148300 6.376539 6.203223 1.717498 90.028302 -5.460500 14.719696 -10.054663 13.103998 -1.074625 -0.650076 -0.048586 33.217603 -11.380698 9.376266 -1.870700 7.125000 0.000000 0.000000 11.464400 -20.098600 6.965900 
